<?xml version="1.0" encoding="UTF-8" standalone="no"?>
<!-- Created with Inkscape (http://www.inkscape.org/) -->

<svg
   width="210mm"
   height="297mm"
   viewBox="0 0 210 297"
   version="1.1"
   id="svg5"
   inkscape:version="1.1.1 (1:1.1+202109281949+c3084ef5ed)"
   sodipodi:docname="05fl-flowchart.svg"
   xmlns:inkscape="http://www.inkscape.org/namespaces/inkscape"
   xmlns:sodipodi="http://sodipodi.sourceforge.net/DTD/sodipodi-0.dtd"
   xmlns:xlink="http://www.w3.org/1999/xlink"
   xmlns="http://www.w3.org/2000/svg"
   xmlns:svg="http://www.w3.org/2000/svg">
  <sodipodi:namedview
     id="namedview7"
     pagecolor="#ffffff"
     bordercolor="#666666"
     borderopacity="1.0"
     inkscape:pageshadow="2"
     inkscape:pageopacity="0.0"
     inkscape:pagecheckerboard="0"
     inkscape:document-units="mm"
     showgrid="true"
     inkscape:snap-bbox="false"
     inkscape:zoom="1.0998546"
     inkscape:cx="286.8561"
     inkscape:cy="226.84817"
     inkscape:window-width="1848"
     inkscape:window-height="1016"
     inkscape:window-x="72"
     inkscape:window-y="27"
     inkscape:window-maximized="1"
     inkscape:current-layer="layer1">
    <inkscape:grid
       type="xygrid"
       id="grid824" />
  </sodipodi:namedview>
  <defs
     id="defs2">
    <marker
       style="overflow:visible;"
       id="marker6985"
       refX="0.0"
       refY="0.0"
       orient="auto"
       inkscape:stockid="Arrow1Mend"
       inkscape:isstock="true">
      <path
         transform="scale(0.4) rotate(180) translate(10,0)"
         style="fill-rule:evenodd;fill:context-stroke;stroke:context-stroke;stroke-width:1.0pt;"
         d="M 0.0,0.0 L 5.0,-5.0 L -12.5,0.0 L 5.0,5.0 L 0.0,0.0 z "
         id="path6983" />
    </marker>
    <marker
       style="overflow:visible;"
       id="marker1509"
       refX="0.0"
       refY="0.0"
       orient="auto"
       inkscape:stockid="Arrow1Mend"
       inkscape:isstock="true">
      <path
         transform="scale(0.4) rotate(180) translate(10,0)"
         style="fill-rule:evenodd;fill:context-stroke;stroke:context-stroke;stroke-width:1.0pt;"
         d="M 0.0,0.0 L 5.0,-5.0 L -12.5,0.0 L 5.0,5.0 L 0.0,0.0 z "
         id="path1507" />
    </marker>
    <marker
       style="overflow:visible;"
       id="Arrow1Mend"
       refX="0.0"
       refY="0.0"
       orient="auto"
       inkscape:stockid="Arrow1Mend"
       inkscape:isstock="true">
      <path
         transform="scale(0.4) rotate(180) translate(10,0)"
         style="fill-rule:evenodd;fill:context-stroke;stroke:context-stroke;stroke-width:1.0pt;"
         d="M 0.0,0.0 L 5.0,-5.0 L -12.5,0.0 L 5.0,5.0 L 0.0,0.0 z "
         id="path1213" />
    </marker>
    <g
       id="g9242">
      <symbol
         overflow="visible"
         id="symbol8148">
        <path
           style="stroke:none;"
           d=""
           id="path3536" />
      </symbol>
      <symbol
         overflow="visible"
         id="symbol1776">
        <path
           style="stroke:none;"
           d="M 3.484375 -0.5625 C 3.59375 -0.15625 3.953125 0.109375 4.375 0.109375 C 4.71875 0.109375 4.953125 -0.125 5.109375 -0.4375 C 5.28125 -0.796875 5.40625 -1.40625 5.40625 -1.421875 C 5.40625 -1.53125 5.328125 -1.53125 5.296875 -1.53125 C 5.1875 -1.53125 5.1875 -1.484375 5.15625 -1.34375 C 5.015625 -0.78125 4.828125 -0.109375 4.40625 -0.109375 C 4.203125 -0.109375 4.09375 -0.234375 4.09375 -0.5625 C 4.09375 -0.78125 4.21875 -1.25 4.296875 -1.609375 L 4.578125 -2.6875 C 4.609375 -2.828125 4.703125 -3.203125 4.75 -3.359375 C 4.796875 -3.59375 4.890625 -3.96875 4.890625 -4.03125 C 4.890625 -4.203125 4.75 -4.296875 4.609375 -4.296875 C 4.5625 -4.296875 4.296875 -4.28125 4.21875 -3.953125 C 4.03125 -3.21875 3.59375 -1.46875 3.46875 -0.953125 C 3.453125 -0.90625 3.0625 -0.109375 2.328125 -0.109375 C 1.8125 -0.109375 1.71875 -0.5625 1.71875 -0.921875 C 1.71875 -1.484375 2 -2.265625 2.25 -2.953125 C 2.375 -3.265625 2.421875 -3.40625 2.421875 -3.59375 C 2.421875 -4.03125 2.109375 -4.40625 1.609375 -4.40625 C 0.65625 -4.40625 0.296875 -2.953125 0.296875 -2.875 C 0.296875 -2.765625 0.390625 -2.765625 0.40625 -2.765625 C 0.515625 -2.765625 0.515625 -2.796875 0.5625 -2.953125 C 0.8125 -3.8125 1.203125 -4.1875 1.578125 -4.1875 C 1.671875 -4.1875 1.828125 -4.171875 1.828125 -3.859375 C 1.828125 -3.625 1.71875 -3.328125 1.65625 -3.1875 C 1.28125 -2.1875 1.078125 -1.578125 1.078125 -1.09375 C 1.078125 -0.140625 1.765625 0.109375 2.296875 0.109375 C 2.953125 0.109375 3.3125 -0.34375 3.484375 -0.5625 Z M 3.484375 -0.5625 "
           id="path1101" />
      </symbol>
    </g>
    <filter
       style="color-interpolation-filters:sRGB;"
       inkscape:label="Drop Shadow"
       id="filter28969"
       x="-0.024320441"
       y="-0.039955009"
       width="1.0815063"
       height="1.1339033">
      <feFlood
         flood-opacity="0.498039"
         flood-color="rgb(0,0,0)"
         result="flood"
         id="feFlood28959" />
      <feComposite
         in="flood"
         in2="SourceGraphic"
         operator="in"
         result="composite1"
         id="feComposite28961" />
      <feGaussianBlur
         in="composite1"
         stdDeviation="0.1"
         result="blur"
         id="feGaussianBlur28963" />
      <feOffset
         dx="1"
         dy="1"
         result="offset"
         id="feOffset28965" />
      <feComposite
         in="SourceGraphic"
         in2="offset"
         operator="over"
         result="composite2"
         id="feComposite28967" />
    </filter>
    <filter
       style="color-interpolation-filters:sRGB;"
       inkscape:label="Drop Shadow"
       id="filter28999"
       x="-0.017480311"
       y="-0.034960628"
       width="1.0585827"
       height="1.1171653">
      <feFlood
         flood-opacity="0.498039"
         flood-color="rgb(0,0,0)"
         result="flood"
         id="feFlood28989" />
      <feComposite
         in="flood"
         in2="SourceGraphic"
         operator="in"
         result="composite1"
         id="feComposite28991" />
      <feGaussianBlur
         in="composite1"
         stdDeviation="0.1"
         result="blur"
         id="feGaussianBlur28993" />
      <feOffset
         dx="1"
         dy="1"
         result="offset"
         id="feOffset28995" />
      <feComposite
         in="SourceGraphic"
         in2="offset"
         operator="over"
         result="composite2"
         id="feComposite28997" />
    </filter>
    <filter
       style="color-interpolation-filters:sRGB;"
       inkscape:label="Drop Shadow"
       id="filter29029"
       x="-0.017480311"
       y="-0.031076108"
       width="1.0585827"
       height="1.104147">
      <feFlood
         flood-opacity="0.498039"
         flood-color="rgb(0,0,0)"
         result="flood"
         id="feFlood29019" />
      <feComposite
         in="flood"
         in2="SourceGraphic"
         operator="in"
         result="composite1"
         id="feComposite29021" />
      <feGaussianBlur
         in="composite1"
         stdDeviation="0.1"
         result="blur"
         id="feGaussianBlur29023" />
      <feOffset
         dx="1"
         dy="1"
         result="offset"
         id="feOffset29025" />
      <feComposite
         in="SourceGraphic"
         in2="offset"
         operator="over"
         result="composite2"
         id="feComposite29027" />
    </filter>
    <filter
       style="color-interpolation-filters:sRGB"
       inkscape:label="Drop Shadow"
       id="filter28969-7"
       x="-0.024320441"
       y="-0.039955009"
       width="1.0815063"
       height="1.1339033">
      <feFlood
         flood-opacity="0.498039"
         flood-color="rgb(0,0,0)"
         result="flood"
         id="feFlood28959-5" />
      <feComposite
         in="flood"
         in2="SourceGraphic"
         operator="in"
         result="composite1"
         id="feComposite28961-6" />
      <feGaussianBlur
         in="composite1"
         stdDeviation="0.1"
         result="blur"
         id="feGaussianBlur28963-9" />
      <feOffset
         dx="1"
         dy="1"
         result="offset"
         id="feOffset28965-8" />
      <feComposite
         in="SourceGraphic"
         in2="offset"
         operator="over"
         result="composite2"
         id="feComposite28967-7" />
    </filter>
    <g
       id="g8875">
      <symbol
         overflow="visible"
         id="symbol5692">
        <path
           style="stroke:none;"
           d=""
           id="path280" />
      </symbol>
      <symbol
         overflow="visible"
         id="symbol8654">
        <path
           style="stroke:none;"
           d="M 4.140625 -6.515625 L 3.984375 -6.65625 C 3.984375 -6.65625 3.609375 -6.1875 3.171875 -6.1875 C 2.9375 -6.1875 2.6875 -6.328125 2.515625 -6.4375 C 2.25 -6.59375 2.078125 -6.65625 1.90625 -6.65625 C 1.53125 -6.65625 1.328125 -6.4375 0.828125 -5.875 L 0.984375 -5.734375 C 0.984375 -5.734375 1.359375 -6.203125 1.796875 -6.203125 C 2.03125 -6.203125 2.28125 -6.0625 2.453125 -5.96875 C 2.71875 -5.796875 2.90625 -5.734375 3.078125 -5.734375 C 3.453125 -5.734375 3.640625 -5.953125 4.140625 -6.515625 Z M 4.140625 -6.515625 "
           id="path8935" />
      </symbol>
      <symbol
         overflow="visible"
         id="symbol927">
        <path
           style="stroke:none;"
           d="M 1.90625 -6.140625 C 1.90625 -6.40625 1.6875 -6.671875 1.390625 -6.671875 C 1.046875 -6.671875 0.84375 -6.390625 0.84375 -6.140625 C 0.84375 -5.875 1.078125 -5.609375 1.375 -5.609375 C 1.71875 -5.609375 1.90625 -5.890625 1.90625 -6.140625 Z M 1.90625 -6.140625 "
           id="path8487" />
      </symbol>
      <symbol
         overflow="visible"
         id="symbol9778">
        <path
           style="stroke:none;"
           d=""
           id="path4261" />
      </symbol>
      <symbol
         overflow="visible"
         id="symbol5435">
        <path
           style="stroke:none;"
           d="M 3.328125 -3.015625 C 3.390625 -3.265625 3.625 -4.1875 4.3125 -4.1875 C 4.359375 -4.1875 4.609375 -4.1875 4.8125 -4.0625 C 4.53125 -4 4.34375 -3.765625 4.34375 -3.515625 C 4.34375 -3.359375 4.453125 -3.171875 4.71875 -3.171875 C 4.9375 -3.171875 5.25 -3.34375 5.25 -3.75 C 5.25 -4.265625 4.671875 -4.40625 4.328125 -4.40625 C 3.75 -4.40625 3.40625 -3.875 3.28125 -3.65625 C 3.03125 -4.3125 2.5 -4.40625 2.203125 -4.40625 C 1.171875 -4.40625 0.59375 -3.125 0.59375 -2.875 C 0.59375 -2.765625 0.703125 -2.765625 0.71875 -2.765625 C 0.796875 -2.765625 0.828125 -2.796875 0.84375 -2.875 C 1.1875 -3.9375 1.84375 -4.1875 2.1875 -4.1875 C 2.375 -4.1875 2.71875 -4.09375 2.71875 -3.515625 C 2.71875 -3.203125 2.546875 -2.546875 2.1875 -1.140625 C 2.03125 -0.53125 1.671875 -0.109375 1.234375 -0.109375 C 1.171875 -0.109375 0.953125 -0.109375 0.734375 -0.234375 C 0.984375 -0.296875 1.203125 -0.5 1.203125 -0.78125 C 1.203125 -1.046875 0.984375 -1.125 0.84375 -1.125 C 0.53125 -1.125 0.296875 -0.875 0.296875 -0.546875 C 0.296875 -0.09375 0.78125 0.109375 1.21875 0.109375 C 1.890625 0.109375 2.25 -0.59375 2.265625 -0.640625 C 2.390625 -0.28125 2.75 0.109375 3.34375 0.109375 C 4.375 0.109375 4.9375 -1.171875 4.9375 -1.421875 C 4.9375 -1.53125 4.859375 -1.53125 4.828125 -1.53125 C 4.734375 -1.53125 4.71875 -1.484375 4.6875 -1.421875 C 4.359375 -0.34375 3.6875 -0.109375 3.375 -0.109375 C 2.984375 -0.109375 2.828125 -0.421875 2.828125 -0.765625 C 2.828125 -0.984375 2.875 -1.203125 2.984375 -1.640625 Z M 3.328125 -3.015625 "
           id="path3151" />
      </symbol>
      <symbol
         overflow="visible"
         id="symbol1894">
        <path
           style="stroke:none;"
           d="M 2.03125 -0.015625 C 2.03125 -0.671875 1.78125 -1.0625 1.390625 -1.0625 C 1.0625 -1.0625 0.859375 -0.8125 0.859375 -0.53125 C 0.859375 -0.265625 1.0625 0 1.390625 0 C 1.5 0 1.640625 -0.046875 1.734375 -0.125 C 1.765625 -0.15625 1.78125 -0.15625 1.78125 -0.15625 C 1.796875 -0.15625 1.796875 -0.15625 1.796875 -0.015625 C 1.796875 0.734375 1.453125 1.328125 1.125 1.65625 C 1.015625 1.765625 1.015625 1.78125 1.015625 1.8125 C 1.015625 1.890625 1.0625 1.921875 1.109375 1.921875 C 1.21875 1.921875 2.03125 1.15625 2.03125 -0.015625 Z M 2.03125 -0.015625 "
           id="path9924" />
      </symbol>
    </g>
    <g
       id="g9840">
      <symbol
         overflow="visible"
         id="symbol5746">
        <path
           style="stroke:none;"
           d=""
           id="path9387" />
      </symbol>
      <symbol
         overflow="visible"
         id="symbol1477">
        <path
           style="stroke:none;"
           d="M 3.328125 -3.015625 C 3.390625 -3.265625 3.625 -4.1875 4.3125 -4.1875 C 4.359375 -4.1875 4.609375 -4.1875 4.8125 -4.0625 C 4.53125 -4 4.34375 -3.765625 4.34375 -3.515625 C 4.34375 -3.359375 4.453125 -3.171875 4.71875 -3.171875 C 4.9375 -3.171875 5.25 -3.34375 5.25 -3.75 C 5.25 -4.265625 4.671875 -4.40625 4.328125 -4.40625 C 3.75 -4.40625 3.40625 -3.875 3.28125 -3.65625 C 3.03125 -4.3125 2.5 -4.40625 2.203125 -4.40625 C 1.171875 -4.40625 0.59375 -3.125 0.59375 -2.875 C 0.59375 -2.765625 0.703125 -2.765625 0.71875 -2.765625 C 0.796875 -2.765625 0.828125 -2.796875 0.84375 -2.875 C 1.1875 -3.9375 1.84375 -4.1875 2.1875 -4.1875 C 2.375 -4.1875 2.71875 -4.09375 2.71875 -3.515625 C 2.71875 -3.203125 2.546875 -2.546875 2.1875 -1.140625 C 2.03125 -0.53125 1.671875 -0.109375 1.234375 -0.109375 C 1.171875 -0.109375 0.953125 -0.109375 0.734375 -0.234375 C 0.984375 -0.296875 1.203125 -0.5 1.203125 -0.78125 C 1.203125 -1.046875 0.984375 -1.125 0.84375 -1.125 C 0.53125 -1.125 0.296875 -0.875 0.296875 -0.546875 C 0.296875 -0.09375 0.78125 0.109375 1.21875 0.109375 C 1.890625 0.109375 2.25 -0.59375 2.265625 -0.640625 C 2.390625 -0.28125 2.75 0.109375 3.34375 0.109375 C 4.375 0.109375 4.9375 -1.171875 4.9375 -1.421875 C 4.9375 -1.53125 4.859375 -1.53125 4.828125 -1.53125 C 4.734375 -1.53125 4.71875 -1.484375 4.6875 -1.421875 C 4.359375 -0.34375 3.6875 -0.109375 3.375 -0.109375 C 2.984375 -0.109375 2.828125 -0.421875 2.828125 -0.765625 C 2.828125 -0.984375 2.875 -1.203125 2.984375 -1.640625 Z M 3.328125 -3.015625 "
           id="path6893" />
      </symbol>
      <symbol
         overflow="visible"
         id="symbol4604">
        <path
           style="stroke:none;"
           d="M 2.03125 -0.015625 C 2.03125 -0.671875 1.78125 -1.0625 1.390625 -1.0625 C 1.0625 -1.0625 0.859375 -0.8125 0.859375 -0.53125 C 0.859375 -0.265625 1.0625 0 1.390625 0 C 1.5 0 1.640625 -0.046875 1.734375 -0.125 C 1.765625 -0.15625 1.78125 -0.15625 1.78125 -0.15625 C 1.796875 -0.15625 1.796875 -0.15625 1.796875 -0.015625 C 1.796875 0.734375 1.453125 1.328125 1.125 1.65625 C 1.015625 1.765625 1.015625 1.78125 1.015625 1.8125 C 1.015625 1.890625 1.0625 1.921875 1.109375 1.921875 C 1.21875 1.921875 2.03125 1.15625 2.03125 -0.015625 Z M 2.03125 -0.015625 "
           id="path2699" />
      </symbol>
      <symbol
         overflow="visible"
         id="symbol5984">
        <path
           style="stroke:none;"
           d=""
           id="path399" />
      </symbol>
      <symbol
         overflow="visible"
         id="symbol3589">
        <path
           style="stroke:none;"
           d="M 1.90625 -6.140625 C 1.90625 -6.40625 1.6875 -6.671875 1.390625 -6.671875 C 1.046875 -6.671875 0.84375 -6.390625 0.84375 -6.140625 C 0.84375 -5.875 1.078125 -5.609375 1.375 -5.609375 C 1.71875 -5.609375 1.90625 -5.890625 1.90625 -6.140625 Z M 1.90625 -6.140625 "
           id="path7682" />
      </symbol>
    </g>
    <g
       id="g9050">
      <symbol
         overflow="visible"
         id="symbol6031">
        <path
           style="stroke:none;"
           d=""
           id="path9693" />
      </symbol>
      <symbol
         overflow="visible"
         id="symbol9866">
        <path
           style="stroke:none;"
           d="M 4.671875 -3.703125 C 4.671875 -4.25 4.40625 -4.40625 4.234375 -4.40625 C 3.984375 -4.40625 3.734375 -4.140625 3.734375 -3.921875 C 3.734375 -3.796875 3.78125 -3.734375 3.890625 -3.625 C 4.109375 -3.421875 4.234375 -3.171875 4.234375 -2.8125 C 4.234375 -2.390625 3.625 -0.109375 2.46875 -0.109375 C 1.953125 -0.109375 1.71875 -0.453125 1.71875 -0.984375 C 1.71875 -1.53125 2 -2.265625 2.296875 -3.09375 C 2.375 -3.265625 2.421875 -3.40625 2.421875 -3.59375 C 2.421875 -4.03125 2.109375 -4.40625 1.609375 -4.40625 C 0.671875 -4.40625 0.296875 -2.953125 0.296875 -2.875 C 0.296875 -2.765625 0.390625 -2.765625 0.40625 -2.765625 C 0.515625 -2.765625 0.515625 -2.796875 0.5625 -2.953125 C 0.859375 -3.953125 1.28125 -4.1875 1.578125 -4.1875 C 1.65625 -4.1875 1.828125 -4.1875 1.828125 -3.875 C 1.828125 -3.625 1.71875 -3.34375 1.65625 -3.171875 C 1.21875 -2.015625 1.09375 -1.5625 1.09375 -1.125 C 1.09375 -0.046875 1.96875 0.109375 2.421875 0.109375 C 4.09375 0.109375 4.671875 -3.1875 4.671875 -3.703125 Z M 4.671875 -3.703125 "
           id="path4598" />
      </symbol>
    </g>
    <filter
       style="color-interpolation-filters:sRGB;"
       inkscape:label="Drop Shadow"
       id="filter17401"
       x="-0.01511811"
       y="-0.026996624"
       width="1.0453543"
       height="1.0809899">
      <feFlood
         flood-opacity="0.498039"
         flood-color="rgb(0,0,0)"
         result="flood"
         id="feFlood17391" />
      <feComposite
         in="flood"
         in2="SourceGraphic"
         operator="in"
         result="composite1"
         id="feComposite17393" />
      <feGaussianBlur
         in="composite1"
         stdDeviation="0"
         result="blur"
         id="feGaussianBlur17395" />
      <feOffset
         dx="0.5"
         dy="0.5"
         result="offset"
         id="feOffset17397" />
      <feComposite
         in="SourceGraphic"
         in2="offset"
         operator="over"
         result="composite2"
         id="feComposite17399" />
    </filter>
    <filter
       style="color-interpolation-filters:sRGB;"
       inkscape:label="Drop Shadow"
       id="filter17431"
       x="-0.012191999"
       y="-0.0092183421"
       width="1.036576"
       height="1.027655">
      <feFlood
         flood-opacity="0.498039"
         flood-color="rgb(0,0,0)"
         result="flood"
         id="feFlood17421" />
      <feComposite
         in="flood"
         in2="SourceGraphic"
         operator="in"
         result="composite1"
         id="feComposite17423" />
      <feGaussianBlur
         in="composite1"
         stdDeviation="0"
         result="blur"
         id="feGaussianBlur17425" />
      <feOffset
         dx="0.5"
         dy="0.5"
         result="offset"
         id="feOffset17427" />
      <feComposite
         in="SourceGraphic"
         in2="offset"
         operator="over"
         result="composite2"
         id="feComposite17429" />
    </filter>
    <filter
       style="color-interpolation-filters:sRGB;"
       inkscape:label="Drop Shadow"
       id="filter17443"
       x="-0.016727283"
       y="-0.029943645"
       width="1.0501819"
       height="1.089831">
      <feFlood
         flood-opacity="0.498039"
         flood-color="rgb(0,0,0)"
         result="flood"
         id="feFlood17433" />
      <feComposite
         in="flood"
         in2="SourceGraphic"
         operator="in"
         result="composite1"
         id="feComposite17435" />
      <feGaussianBlur
         in="composite1"
         stdDeviation="0"
         result="blur"
         id="feGaussianBlur17437" />
      <feOffset
         dx="0.5"
         dy="0.5"
         result="offset"
         id="feOffset17439" />
      <feComposite
         in="SourceGraphic"
         in2="offset"
         operator="over"
         result="composite2"
         id="feComposite17441" />
    </filter>
    <filter
       style="color-interpolation-filters:sRGB;"
       inkscape:label="Drop Shadow"
       id="filter17455"
       x="-0.013032826"
       y="-0.029943645"
       width="1.0390985"
       height="1.089831">
      <feFlood
         flood-opacity="0.498039"
         flood-color="rgb(0,0,0)"
         result="flood"
         id="feFlood17445" />
      <feComposite
         in="flood"
         in2="SourceGraphic"
         operator="in"
         result="composite1"
         id="feComposite17447" />
      <feGaussianBlur
         in="composite1"
         stdDeviation="0"
         result="blur"
         id="feGaussianBlur17449" />
      <feOffset
         dx="0.5"
         dy="0.5"
         result="offset"
         id="feOffset17451" />
      <feComposite
         in="SourceGraphic"
         in2="offset"
         operator="over"
         result="composite2"
         id="feComposite17453" />
    </filter>
  </defs>
  <g
     inkscape:label="Layer 1"
     inkscape:groupmode="layer"
     id="layer1">
    <path
       style="fill:none;stroke:#000000;stroke-width:0.5;stroke-linecap:butt;stroke-linejoin:miter;stroke-miterlimit:4;stroke-dasharray:none;stroke-opacity:1;marker-end:url(#Arrow1Mend)"
       d="m 107.15625,31.749997 h 23.81251"
       id="path1122" />
    <path
       style="fill:none;stroke:#000000;stroke-width:0.5;stroke-linecap:butt;stroke-linejoin:miter;stroke-miterlimit:4;stroke-dasharray:none;stroke-opacity:1;marker-end:url(#Arrow1Mend)"
       d="M 162.71875,31.749997 H 219.6042"
       id="path2385" />
    <path
       style="fill:none;stroke:#000000;stroke-width:0.500001;stroke-linecap:butt;stroke-linejoin:miter;stroke-miterlimit:4;stroke-dasharray:none;stroke-opacity:1;marker-end:url(#marker6985)"
       d="m 170.40819,31.749997 h 26.70642 v 25.13542 h -25.13544"
       id="path6981" />
    <text
       xml:space="preserve"
       style="font-style:italic;font-variant:normal;font-weight:normal;font-stretch:normal;font-size:2.82222px;line-height:1.25;font-family:sans-serif;-inkscape-font-specification:'sans-serif Italic';stroke-width:0.264583"
       x="187.49405"
       y="30.306803"
       id="text13295"><tspan
         sodipodi:role="line"
         id="tspan13293"
         style="font-style:italic;font-variant:normal;font-weight:normal;font-stretch:normal;font-size:2.82222px;font-family:sans-serif;-inkscape-font-specification:'sans-serif Italic';stroke-width:0.264583"
         x="187.49405"
         y="30.306803">Partial States</tspan></text>
    <text
       xml:space="preserve"
       style="font-style:italic;font-variant:normal;font-weight:normal;font-stretch:normal;font-size:2.82222px;line-height:1.25;font-family:sans-serif;-inkscape-font-specification:'sans-serif Italic';stroke-width:0.264583"
       x="112.53265"
       y="55.349171"
       id="text13295-5"><tspan
         sodipodi:role="line"
         id="tspan13293-2"
         style="font-style:italic;font-variant:normal;font-weight:normal;font-stretch:normal;font-size:2.82222px;font-family:sans-serif;-inkscape-font-specification:'sans-serif Italic';stroke-width:0.264583"
         x="112.53265"
         y="55.349171">Full States</tspan></text>
    <text
       xml:space="preserve"
       style="font-style:italic;font-variant:normal;font-weight:normal;font-stretch:normal;font-size:2.82222px;line-height:1.25;font-family:sans-serif;-inkscape-font-specification:'sans-serif Italic';stroke-width:0.264583"
       x="116.33676"
       y="29.828302"
       id="text13295-5-2"><tspan
         sodipodi:role="line"
         id="tspan13293-2-4"
         style="font-style:italic;font-variant:normal;font-weight:normal;font-stretch:normal;font-size:2.82222px;font-family:sans-serif;-inkscape-font-specification:'sans-serif Italic';stroke-width:0.264583"
         x="116.33676"
         y="29.828302">Input</tspan></text>
    <text
       xml:space="preserve"
       style="font-style:italic;font-variant:normal;font-weight:normal;font-stretch:normal;font-size:2.82222px;line-height:1.25;font-family:sans-serif;-inkscape-font-specification:'sans-serif Italic';stroke-width:0.264583"
       x="37.583954"
       y="57.696323"
       id="text13295-5-2-1"><tspan
         sodipodi:role="line"
         id="tspan13293-2-4-4"
         style="font-style:italic;font-variant:normal;font-weight:normal;font-stretch:normal;font-size:2.82222px;font-family:sans-serif;-inkscape-font-specification:'sans-serif Italic';stroke-width:0.264583"
         x="37.583954"
         y="57.696323">Reference States:</tspan></text>
    <rect
       style="fill:#ffffff;fill-opacity:1;stroke:#000000;stroke-width:1;stroke-linejoin:round;stroke-miterlimit:4;stroke-dasharray:none;stroke-opacity:1;filter:url(#filter17401)"
       id="rect1133"
       width="33.072918"
       height="18.520834"
       x="1.3229162"
       y="50.270836"
       rx="1.9073486e-06" />
    <rect
       style="fill:#ffffff;fill-opacity:1;stroke:#000000;stroke-width:0.999998;stroke-linejoin:round;stroke-miterlimit:4;stroke-dasharray:none;stroke-opacity:1;filter:url(#filter17443)"
       id="rect1133-10"
       width="29.891226"
       height="16.698"
       x="132.29167"
       y="23.8125"
       rx="1.7238573e-06" />
    <rect
       style="fill:#ffffff;fill-opacity:1;stroke:#000000;stroke-width:0.999998;stroke-linejoin:round;stroke-miterlimit:4;stroke-dasharray:none;stroke-opacity:1;filter:url(#filter17455)"
       id="rect1133-10-4"
       width="38.364586"
       height="16.698"
       x="132.29167"
       y="48.12492"
       rx="2.2125246e-06" />
    <rect
       style="fill:#ffffff;fill-opacity:1;stroke:#000000;stroke-width:0.999998;stroke-linejoin:round;stroke-miterlimit:4;stroke-dasharray:none;stroke-opacity:1;filter:url(#filter17431)"
       id="rect1133-1"
       width="41.010418"
       height="54.239578"
       x="66.145836"
       y="17.197916"
       rx="2.3651123e-06" />
    <text
       xml:space="preserve"
       style="font-style:normal;font-weight:normal;font-size:3.0999px;line-height:1.25;font-family:sans-serif;fill:#000000;fill-opacity:1;stroke:none;stroke-width:0.264583"
       x="-28.661701"
       y="57.520313"
       id="text3307"><tspan
         sodipodi:role="line"
         id="tspan3305"
         style="stroke-width:0.264583"
         x="-28.661701"
         y="57.520313">Trajectory </tspan></text>
    <path
       style="fill:none;stroke:#000000;stroke-width:0.5;stroke-linecap:butt;stroke-linejoin:miter;stroke-miterlimit:4;stroke-dasharray:none;stroke-opacity:1;marker-end:url(#marker6985)"
       d="M -30.427084,59.531252 H -6.0244955e-7"
       id="path3554" />
    <path
       style="fill:none;stroke:#000000;stroke-width:0.5;stroke-linecap:butt;stroke-linejoin:miter;stroke-opacity:1;stroke-miterlimit:4;stroke-dasharray:none;marker-end:url(#marker6985)"
       d="M 34.395833,59.531249 H 64.822916"
       id="path5251" />
    <g
       inkscape:label=""
       transform="matrix(0.34909091,0,0,0.34909091,14.697267,34.892197)"
       id="g8845"
       style="stroke-width:2.86458">
      <g
         id="g1642"
         style="stroke-width:2.86458">
        <g
           style="fill:#000000;fill-opacity:1;stroke-width:2.86458"
           id="g3657">
          <use
             xlink:href="#symbol1477"
             x="91.925003"
             y="81.962997"
             id="use6709"
             width="100%"
             height="100%"
             style="stroke-width:2.86458" />
          <use
             xlink:href="#symbol4604"
             x="97.618629"
             y="81.962997"
             id="use7631"
             width="100%"
             height="100%"
             style="stroke-width:2.86458" />
        </g>
        <g
           style="fill:#000000;fill-opacity:1;stroke-width:2.86458"
           id="g1489">
          <use
             xlink:href="#symbol3589"
             x="107.108"
             y="81.962997"
             id="use9501"
             width="100%"
             height="100%"
             style="stroke-width:2.86458" />
        </g>
        <g
           style="fill:#000000;fill-opacity:1;stroke-width:2.86458"
           id="g7825">
          <use
             xlink:href="#symbol1477"
             x="105.368"
             y="81.962997"
             id="use2402"
             width="100%"
             height="100%"
             style="stroke-width:2.86458" />
        </g>
      </g>
    </g>
    <rect
       style="fill:#ffffff;fill-opacity:1;stroke:#000000;stroke-width:0.499999;stroke-linejoin:round;stroke-miterlimit:4;stroke-dasharray:none;stroke-opacity:1"
       id="rect9017"
       width="33.072918"
       height="17.197924"
       x="70.114586"
       y="22.489576"
       rx="3.2471519" />
    <rect
       style="fill:#ffffff;fill-opacity:1;stroke:#000000;stroke-width:0.499999;stroke-linejoin:round;stroke-miterlimit:4;stroke-dasharray:none;stroke-opacity:1"
       id="rect9019"
       width="33.072918"
       height="17.197914"
       x="70.114586"
       y="48.947918"
       rx="3.2471519" />
    <path
       style="fill:none;stroke:#000000;stroke-width:0.265;stroke-linecap:butt;stroke-linejoin:miter;stroke-miterlimit:4;stroke-dasharray:none;stroke-opacity:1;marker-end:url(#marker6985)"
       d="M 87.312499,48.54757 V 40.610071"
       id="path16271" />
    <g
       inkscape:label=""
       transform="matrix(0.55363322,0,0,0.55363322,38.527746,0.12971333)"
       id="g16575"
       style="stroke-width:1.80625">
      <g
         id="g2557"
         style="stroke-width:1.80625">
        <g
           style="fill:#000000;fill-opacity:1;stroke-width:1.80625"
           id="g2716">
          <use
             xlink:href="#symbol9866"
             x="91.925003"
             y="81.962997"
             id="use6271"
             width="100%"
             height="100%"
             style="stroke-width:1.80625" />
        </g>
      </g>
    </g>
    <path
       style="fill:none;stroke:#000000;stroke-width:0.500001;stroke-linecap:butt;stroke-linejoin:miter;stroke-miterlimit:4;stroke-dasharray:none;stroke-opacity:1;marker-end:url(#marker6985)"
       d="M 132.29166,56.885416 H 108.47917"
       id="path17033" />
  </g>
  <g
     inkscape:groupmode="layer"
     id="layer2"
     inkscape:label="text">
    <text
       xml:space="preserve"
       style="font-size:4.23333px;line-height:1.25;font-family:sans-serif;-inkscape-font-specification:'sans-serif, Normal';text-align:center;text-anchor:middle;stroke-width:0.264583"
       x="17.850073"
       y="58.463619"
       id="text4252-5"><tspan
         sodipodi:role="line"
         id="tspan4250-8"
         style="text-align:center;text-anchor:middle;stroke-width:0.264583"
         x="17.850073"
         y="58.463619">Differential</tspan><tspan
         sodipodi:role="line"
         style="text-align:center;text-anchor:middle;stroke-width:0.264583"
         x="17.850073"
         y="63.75528"
         id="tspan11834">Flat</tspan></text>
    <text
       xml:space="preserve"
       style="font-size:4.23333px;line-height:1.25;font-family:sans-serif;-inkscape-font-specification:'sans-serif, Normal';text-align:center;text-anchor:middle;stroke-width:0.264583"
       x="86.623138"
       y="56.47924"
       id="text4252-5-4"><tspan
         sodipodi:role="line"
         style="text-align:center;text-anchor:middle;stroke-width:0.264583"
         x="86.623138"
         y="56.47924"
         id="tspan11834-0">Feedback</tspan><tspan
         sodipodi:role="line"
         style="text-align:center;text-anchor:middle;stroke-width:0.264583"
         x="86.623138"
         y="61.770905"
         id="tspan13881">Linearization</tspan></text>
    <text
       xml:space="preserve"
       style="font-size:4.23333px;line-height:1.25;font-family:sans-serif;-inkscape-font-specification:'sans-serif, Normal';text-align:center;text-anchor:middle;stroke-width:0.264583"
       x="86.635544"
       y="29.545483"
       id="text4252-5-4-4"><tspan
         sodipodi:role="line"
         style="text-align:center;text-anchor:middle;stroke-width:0.264583"
         x="86.635544"
         y="29.545483"
         id="tspan13881-9">Reverse</tspan><tspan
         sodipodi:role="line"
         style="text-align:center;text-anchor:middle;stroke-width:0.264583"
         x="86.635544"
         y="34.837143"
         id="tspan15914">Mapping</tspan></text>
    <text
       xml:space="preserve"
       style="font-size:4.23333px;line-height:1.25;font-family:sans-serif;-inkscape-font-specification:'sans-serif, Normal';stroke-width:0.264583"
       x="139.25638"
       y="33.739697"
       id="text4252"><tspan
         sodipodi:role="line"
         id="tspan4250"
         style="stroke-width:0.264583"
         x="139.25638"
         y="33.739697">Piranha</tspan></text>
    <text
       xml:space="preserve"
       style="font-size:4.23333px;line-height:1.25;font-family:sans-serif;-inkscape-font-specification:'sans-serif, Normal';text-align:center;text-anchor:middle;stroke-width:0.264583"
       x="151.33444"
       y="55.157204"
       id="text6580"><tspan
         sodipodi:role="line"
         id="tspan6578"
         style="text-align:center;text-anchor:middle;stroke-width:0.264583"
         x="151.33444"
         y="55.157204">State Estimator</tspan><tspan
         sodipodi:role="line"
         style="text-align:center;text-anchor:middle;stroke-width:0.264583"
         x="151.33444"
         y="60.448864"
         id="tspan8255">(EKF)</tspan></text>
  </g>
</svg>
