<?xml version="1.0" encoding="UTF-8" standalone="no"?>
<!-- Created with Inkscape (http://www.inkscape.org/) -->

<svg
   width="210mm"
   height="297mm"
   viewBox="0 0 210 297"
   version="1.1"
   id="svg5"
   inkscape:version="1.1 (c68e22c387, 2021-05-23)"
   sodipodi:docname="05pid-flowchart.svg"
   xmlns:inkscape="http://www.inkscape.org/namespaces/inkscape"
   xmlns:sodipodi="http://sodipodi.sourceforge.net/DTD/sodipodi-0.dtd"
   xmlns:xlink="http://www.w3.org/1999/xlink"
   xmlns="http://www.w3.org/2000/svg"
   xmlns:svg="http://www.w3.org/2000/svg">
  <sodipodi:namedview
     id="namedview7"
     pagecolor="#ffffff"
     bordercolor="#666666"
     borderopacity="1.0"
     inkscape:pageshadow="2"
     inkscape:pageopacity="0.0"
     inkscape:pagecheckerboard="0"
     inkscape:document-units="mm"
     showgrid="true"
     inkscape:snap-bbox="false"
     inkscape:zoom="1.5554293"
     inkscape:cx="96.757854"
     inkscape:cy="265.84301"
     inkscape:window-width="3440"
     inkscape:window-height="1377"
     inkscape:window-x="-8"
     inkscape:window-y="-8"
     inkscape:window-maximized="1"
     inkscape:current-layer="layer1">
    <inkscape:grid
       type="xygrid"
       id="grid824" />
  </sodipodi:namedview>
  <defs
     id="defs2">
    <marker
       style="overflow:visible;"
       id="marker6985"
       refX="0.0"
       refY="0.0"
       orient="auto"
       inkscape:stockid="Arrow1Mend"
       inkscape:isstock="true">
      <path
         transform="scale(0.4) rotate(180) translate(10,0)"
         style="fill-rule:evenodd;fill:context-stroke;stroke:context-stroke;stroke-width:1.0pt;"
         d="M 0.0,0.0 L 5.0,-5.0 L -12.5,0.0 L 5.0,5.0 L 0.0,0.0 z "
         id="path6983" />
    </marker>
    <marker
       style="overflow:visible;"
       id="marker1509"
       refX="0.0"
       refY="0.0"
       orient="auto"
       inkscape:stockid="Arrow1Mend"
       inkscape:isstock="true">
      <path
         transform="scale(0.4) rotate(180) translate(10,0)"
         style="fill-rule:evenodd;fill:context-stroke;stroke:context-stroke;stroke-width:1.0pt;"
         d="M 0.0,0.0 L 5.0,-5.0 L -12.5,0.0 L 5.0,5.0 L 0.0,0.0 z "
         id="path1507" />
    </marker>
    <marker
       style="overflow:visible;"
       id="Arrow1Mend"
       refX="0.0"
       refY="0.0"
       orient="auto"
       inkscape:stockid="Arrow1Mend"
       inkscape:isstock="true">
      <path
         transform="scale(0.4) rotate(180) translate(10,0)"
         style="fill-rule:evenodd;fill:context-stroke;stroke:context-stroke;stroke-width:1.0pt;"
         d="M 0.0,0.0 L 5.0,-5.0 L -12.5,0.0 L 5.0,5.0 L 0.0,0.0 z "
         id="path1213" />
    </marker>
    <g
       id="g9242">
      <symbol
         overflow="visible"
         id="symbol8148">
        <path
           style="stroke:none;"
           d=""
           id="path3536" />
      </symbol>
      <symbol
         overflow="visible"
         id="symbol1776">
        <path
           style="stroke:none;"
           d="M 3.484375 -0.5625 C 3.59375 -0.15625 3.953125 0.109375 4.375 0.109375 C 4.71875 0.109375 4.953125 -0.125 5.109375 -0.4375 C 5.28125 -0.796875 5.40625 -1.40625 5.40625 -1.421875 C 5.40625 -1.53125 5.328125 -1.53125 5.296875 -1.53125 C 5.1875 -1.53125 5.1875 -1.484375 5.15625 -1.34375 C 5.015625 -0.78125 4.828125 -0.109375 4.40625 -0.109375 C 4.203125 -0.109375 4.09375 -0.234375 4.09375 -0.5625 C 4.09375 -0.78125 4.21875 -1.25 4.296875 -1.609375 L 4.578125 -2.6875 C 4.609375 -2.828125 4.703125 -3.203125 4.75 -3.359375 C 4.796875 -3.59375 4.890625 -3.96875 4.890625 -4.03125 C 4.890625 -4.203125 4.75 -4.296875 4.609375 -4.296875 C 4.5625 -4.296875 4.296875 -4.28125 4.21875 -3.953125 C 4.03125 -3.21875 3.59375 -1.46875 3.46875 -0.953125 C 3.453125 -0.90625 3.0625 -0.109375 2.328125 -0.109375 C 1.8125 -0.109375 1.71875 -0.5625 1.71875 -0.921875 C 1.71875 -1.484375 2 -2.265625 2.25 -2.953125 C 2.375 -3.265625 2.421875 -3.40625 2.421875 -3.59375 C 2.421875 -4.03125 2.109375 -4.40625 1.609375 -4.40625 C 0.65625 -4.40625 0.296875 -2.953125 0.296875 -2.875 C 0.296875 -2.765625 0.390625 -2.765625 0.40625 -2.765625 C 0.515625 -2.765625 0.515625 -2.796875 0.5625 -2.953125 C 0.8125 -3.8125 1.203125 -4.1875 1.578125 -4.1875 C 1.671875 -4.1875 1.828125 -4.171875 1.828125 -3.859375 C 1.828125 -3.625 1.71875 -3.328125 1.65625 -3.1875 C 1.28125 -2.1875 1.078125 -1.578125 1.078125 -1.09375 C 1.078125 -0.140625 1.765625 0.109375 2.296875 0.109375 C 2.953125 0.109375 3.3125 -0.34375 3.484375 -0.5625 Z M 3.484375 -0.5625 "
           id="path1101" />
      </symbol>
    </g>
    <filter
       style="color-interpolation-filters:sRGB;"
       inkscape:label="Drop Shadow"
       id="filter28969"
       x="-0.024320441"
       y="-0.039955009"
       width="1.0815063"
       height="1.1339033">
      <feFlood
         flood-opacity="0.498039"
         flood-color="rgb(0,0,0)"
         result="flood"
         id="feFlood28959" />
      <feComposite
         in="flood"
         in2="SourceGraphic"
         operator="in"
         result="composite1"
         id="feComposite28961" />
      <feGaussianBlur
         in="composite1"
         stdDeviation="0.1"
         result="blur"
         id="feGaussianBlur28963" />
      <feOffset
         dx="1"
         dy="1"
         result="offset"
         id="feOffset28965" />
      <feComposite
         in="SourceGraphic"
         in2="offset"
         operator="over"
         result="composite2"
         id="feComposite28967" />
    </filter>
    <filter
       style="color-interpolation-filters:sRGB;"
       inkscape:label="Drop Shadow"
       id="filter28999"
       x="-0.017480311"
       y="-0.034960628"
       width="1.0585827"
       height="1.1171653">
      <feFlood
         flood-opacity="0.498039"
         flood-color="rgb(0,0,0)"
         result="flood"
         id="feFlood28989" />
      <feComposite
         in="flood"
         in2="SourceGraphic"
         operator="in"
         result="composite1"
         id="feComposite28991" />
      <feGaussianBlur
         in="composite1"
         stdDeviation="0.1"
         result="blur"
         id="feGaussianBlur28993" />
      <feOffset
         dx="1"
         dy="1"
         result="offset"
         id="feOffset28995" />
      <feComposite
         in="SourceGraphic"
         in2="offset"
         operator="over"
         result="composite2"
         id="feComposite28997" />
    </filter>
    <filter
       style="color-interpolation-filters:sRGB;"
       inkscape:label="Drop Shadow"
       id="filter29029"
       x="-0.017480311"
       y="-0.031076108"
       width="1.0585827"
       height="1.104147">
      <feFlood
         flood-opacity="0.498039"
         flood-color="rgb(0,0,0)"
         result="flood"
         id="feFlood29019" />
      <feComposite
         in="flood"
         in2="SourceGraphic"
         operator="in"
         result="composite1"
         id="feComposite29021" />
      <feGaussianBlur
         in="composite1"
         stdDeviation="0.1"
         result="blur"
         id="feGaussianBlur29023" />
      <feOffset
         dx="1"
         dy="1"
         result="offset"
         id="feOffset29025" />
      <feComposite
         in="SourceGraphic"
         in2="offset"
         operator="over"
         result="composite2"
         id="feComposite29027" />
    </filter>
    <g
       id="g3985">
      <symbol
         overflow="visible"
         id="symbol6390">
        <path
           style="stroke:none;"
           d=""
           id="path2789" />
      </symbol>
      <symbol
         overflow="visible"
         id="symbol3553">
        <path
           style="stroke:none;"
           d="M 3.484375 -0.5625 C 3.59375 -0.15625 3.953125 0.109375 4.375 0.109375 C 4.71875 0.109375 4.953125 -0.125 5.109375 -0.4375 C 5.28125 -0.796875 5.40625 -1.40625 5.40625 -1.421875 C 5.40625 -1.53125 5.328125 -1.53125 5.296875 -1.53125 C 5.1875 -1.53125 5.1875 -1.484375 5.15625 -1.34375 C 5.015625 -0.78125 4.828125 -0.109375 4.40625 -0.109375 C 4.203125 -0.109375 4.09375 -0.234375 4.09375 -0.5625 C 4.09375 -0.78125 4.21875 -1.25 4.296875 -1.609375 L 4.578125 -2.6875 C 4.609375 -2.828125 4.703125 -3.203125 4.75 -3.359375 C 4.796875 -3.59375 4.890625 -3.96875 4.890625 -4.03125 C 4.890625 -4.203125 4.75 -4.296875 4.609375 -4.296875 C 4.5625 -4.296875 4.296875 -4.28125 4.21875 -3.953125 C 4.03125 -3.21875 3.59375 -1.46875 3.46875 -0.953125 C 3.453125 -0.90625 3.0625 -0.109375 2.328125 -0.109375 C 1.8125 -0.109375 1.71875 -0.5625 1.71875 -0.921875 C 1.71875 -1.484375 2 -2.265625 2.25 -2.953125 C 2.375 -3.265625 2.421875 -3.40625 2.421875 -3.59375 C 2.421875 -4.03125 2.109375 -4.40625 1.609375 -4.40625 C 0.65625 -4.40625 0.296875 -2.953125 0.296875 -2.875 C 0.296875 -2.765625 0.390625 -2.765625 0.40625 -2.765625 C 0.515625 -2.765625 0.515625 -2.796875 0.5625 -2.953125 C 0.8125 -3.8125 1.203125 -4.1875 1.578125 -4.1875 C 1.671875 -4.1875 1.828125 -4.171875 1.828125 -3.859375 C 1.828125 -3.625 1.71875 -3.328125 1.65625 -3.1875 C 1.28125 -2.1875 1.078125 -1.578125 1.078125 -1.09375 C 1.078125 -0.140625 1.765625 0.109375 2.296875 0.109375 C 2.953125 0.109375 3.3125 -0.34375 3.484375 -0.5625 Z M 3.484375 -0.5625 "
           id="path9229" />
      </symbol>
      <symbol
         overflow="visible"
         id="symbol2473">
        <path
           style="stroke:none;"
           d="M 2.03125 -0.015625 C 2.03125 -0.671875 1.78125 -1.0625 1.390625 -1.0625 C 1.0625 -1.0625 0.859375 -0.8125 0.859375 -0.53125 C 0.859375 -0.265625 1.0625 0 1.390625 0 C 1.5 0 1.640625 -0.046875 1.734375 -0.125 C 1.765625 -0.15625 1.78125 -0.15625 1.78125 -0.15625 C 1.796875 -0.15625 1.796875 -0.15625 1.796875 -0.015625 C 1.796875 0.734375 1.453125 1.328125 1.125 1.65625 C 1.015625 1.765625 1.015625 1.78125 1.015625 1.8125 C 1.015625 1.890625 1.0625 1.921875 1.109375 1.921875 C 1.21875 1.921875 2.03125 1.15625 2.03125 -0.015625 Z M 2.03125 -0.015625 "
           id="path3508" />
      </symbol>
      <symbol
         overflow="visible"
         id="symbol1287">
        <path
           style="stroke:none;"
           d="M 4.8125 -6.65625 C 4.8125 -6.703125 4.828125 -6.765625 4.828125 -6.8125 C 4.828125 -6.90625 4.765625 -6.921875 4.71875 -6.921875 C 4.609375 -6.921875 4.609375 -6.890625 4.5625 -6.71875 L 2.90625 -0.125 C 2.15625 -0.21875 1.78125 -0.59375 1.78125 -1.25 C 1.78125 -1.453125 1.78125 -1.703125 2.3125 -3.09375 C 2.359375 -3.21875 2.421875 -3.390625 2.421875 -3.59375 C 2.421875 -4.03125 2.109375 -4.40625 1.609375 -4.40625 C 0.65625 -4.40625 0.296875 -2.953125 0.296875 -2.875 C 0.296875 -2.765625 0.390625 -2.765625 0.40625 -2.765625 C 0.515625 -2.765625 0.515625 -2.796875 0.5625 -2.953125 C 0.84375 -3.890625 1.234375 -4.1875 1.578125 -4.1875 C 1.65625 -4.1875 1.828125 -4.1875 1.828125 -3.875 C 1.828125 -3.609375 1.71875 -3.359375 1.59375 -3.015625 C 1.109375 -1.75 1.109375 -1.5 1.109375 -1.328125 C 1.109375 -0.375 1.890625 0.03125 2.84375 0.09375 C 2.765625 0.453125 2.765625 0.46875 2.625 1 C 2.609375 1.109375 2.40625 1.90625 2.40625 1.9375 C 2.40625 1.953125 2.40625 2.046875 2.515625 2.046875 C 2.546875 2.046875 2.59375 2.046875 2.609375 2 C 2.640625 1.984375 2.703125 1.734375 2.734375 1.59375 L 3.109375 0.109375 C 3.484375 0.109375 4.359375 0.109375 5.296875 -0.953125 C 5.703125 -1.421875 5.90625 -1.859375 6.015625 -2.15625 C 6.109375 -2.40625 6.328125 -3.265625 6.328125 -3.703125 C 6.328125 -4.265625 6.0625 -4.40625 5.890625 -4.40625 C 5.640625 -4.40625 5.390625 -4.140625 5.390625 -3.921875 C 5.390625 -3.796875 5.453125 -3.734375 5.546875 -3.65625 C 5.65625 -3.546875 5.90625 -3.296875 5.90625 -2.8125 C 5.90625 -2.171875 5.390625 -1.359375 5.03125 -1 C 4.15625 -0.109375 3.515625 -0.109375 3.15625 -0.109375 Z M 4.8125 -6.65625 "
           id="path5549" />
      </symbol>
    </g>
    <filter
       style="color-interpolation-filters:sRGB;"
       inkscape:label="Drop Shadow"
       id="filter1666"
       x="-0.01643273"
       y="-0.026996627"
       width="1.0657309"
       height="1.1079865">
      <feFlood
         flood-opacity="0.498039"
         flood-color="rgb(0,0,0)"
         result="flood"
         id="feFlood1656" />
      <feComposite
         in="flood"
         in2="SourceGraphic"
         operator="in"
         result="composite1"
         id="feComposite1658" />
      <feGaussianBlur
         in="composite1"
         stdDeviation="2.77556e-17"
         result="blur"
         id="feGaussianBlur1660" />
      <feOffset
         dx="1"
         dy="1"
         result="offset"
         id="feOffset1662" />
      <feComposite
         in="SourceGraphic"
         in2="offset"
         operator="over"
         result="composite2"
         id="feComposite1664" />
    </filter>
    <filter
       style="color-interpolation-filters:sRGB;"
       inkscape:label="Drop Shadow"
       id="filter1678"
       x="-0.011811021"
       y="-0.023622046"
       width="1.0472441"
       height="1.0944882">
      <feFlood
         flood-opacity="0.498039"
         flood-color="rgb(0,0,0)"
         result="flood"
         id="feFlood1668" />
      <feComposite
         in="flood"
         in2="SourceGraphic"
         operator="in"
         result="composite1"
         id="feComposite1670" />
      <feGaussianBlur
         in="composite1"
         stdDeviation="2.77556e-17"
         result="blur"
         id="feGaussianBlur1672" />
      <feOffset
         dx="1"
         dy="1"
         result="offset"
         id="feOffset1674" />
      <feComposite
         in="SourceGraphic"
         in2="offset"
         operator="over"
         result="composite2"
         id="feComposite1676" />
    </filter>
    <filter
       style="color-interpolation-filters:sRGB;"
       inkscape:label="Drop Shadow"
       id="filter1690"
       x="-0.011811021"
       y="-0.02099737"
       width="1.0472441"
       height="1.0839895">
      <feFlood
         flood-opacity="0.498039"
         flood-color="rgb(0,0,0)"
         result="flood"
         id="feFlood1680" />
      <feComposite
         in="flood"
         in2="SourceGraphic"
         operator="in"
         result="composite1"
         id="feComposite1682" />
      <feGaussianBlur
         in="composite1"
         stdDeviation="2.77556e-17"
         result="blur"
         id="feGaussianBlur1684" />
      <feOffset
         dx="1"
         dy="1"
         result="offset"
         id="feOffset1686" />
      <feComposite
         in="SourceGraphic"
         in2="offset"
         operator="over"
         result="composite2"
         id="feComposite1688" />
    </filter>
  </defs>
  <g
     inkscape:label="Layer 1"
     inkscape:groupmode="layer"
     id="layer1">
    <rect
       style="fill:#ffffff;fill-opacity:1;stroke:#000000;stroke-width:1;stroke-linejoin:round;stroke-miterlimit:4;stroke-dasharray:none;stroke-dashoffset:0;stroke-opacity:1;filter:url(#filter1678)"
       id="rect848"
       width="42.333344"
       height="21.166668"
       x="99.218735"
       y="52.916664"
       ry="2.6458359" />
    <rect
       style="fill:#ffffff;fill-opacity:1;stroke:#000000;stroke-width:1;stroke-linejoin:round;stroke-miterlimit:4;stroke-dasharray:none;stroke-dashoffset:0;stroke-opacity:1;filter:url(#filter1666)"
       id="rect848-0"
       width="30.42708"
       height="18.520832"
       x="44.979168"
       y="54.239578"
       ry="2.6458385" />
    <rect
       style="fill:#ffffff;fill-opacity:1;stroke:#000000;stroke-width:1;stroke-linejoin:round;stroke-miterlimit:4;stroke-dasharray:none;stroke-dashoffset:0;stroke-opacity:1;filter:url(#filter1690)"
       id="rect848-5"
       width="42.333344"
       height="23.812506"
       x="99.21875"
       y="87.3125"
       ry="2.6458333" />
    <path
       style="fill:none;stroke:#000000;stroke-width:0.5;stroke-linecap:butt;stroke-linejoin:miter;stroke-miterlimit:4;stroke-dasharray:none;stroke-opacity:1;marker-end:url(#Arrow1Mend)"
       d="M 75.406228,63.499996 H 97.895816"
       id="path1122" />
    <path
       style="fill:none;stroke:#000000;stroke-width:0.5;stroke-linecap:butt;stroke-linejoin:miter;stroke-miterlimit:4;stroke-dasharray:none;stroke-opacity:1;marker-end:url(#marker1509)"
       d="M 15.875,63.5 H 43.65625"
       id="path1505" />
    <path
       style="fill:none;stroke:#000000;stroke-width:0.5;stroke-linecap:butt;stroke-linejoin:miter;stroke-miterlimit:4;stroke-dasharray:none;stroke-opacity:1;marker-end:url(#Arrow1Mend)"
       d="m 164.04167,63.499999 h 22.48958"
       id="path2385" />
    <text
       xml:space="preserve"
       style="font-size:4.23333px;line-height:1.25;font-family:sans-serif;-inkscape-font-specification:'sans-serif, Normal';stroke-width:0.264583"
       x="112.41691"
       y="65.076126"
       id="text4252"><tspan
         sodipodi:role="line"
         id="tspan4250"
         style="stroke-width:0.264583"
         x="112.41691"
         y="65.076126">Piranha</tspan></text>
    <text
       xml:space="preserve"
       style="font-size:4.23333px;line-height:1.25;font-family:sans-serif;-inkscape-font-specification:'sans-serif, Normal';text-align:center;text-anchor:middle;stroke-width:0.264583"
       x="120.23866"
       y="97.713936"
       id="text6580"><tspan
         sodipodi:role="line"
         id="tspan6578"
         style="text-align:center;text-anchor:middle;stroke-width:0.264583"
         x="120.23866"
         y="97.713936">State Estimator</tspan><tspan
         sodipodi:role="line"
         style="text-align:center;text-anchor:middle;stroke-width:0.264583"
         x="120.23866"
         y="103.0056"
         id="tspan8255">(EKF)</tspan></text>
    <text
       xml:space="preserve"
       style="font-size:4.23333px;line-height:1.25;font-family:sans-serif;-inkscape-font-specification:'sans-serif, Normal';stroke-width:0.264583"
       x="56.31181"
       y="65.038925"
       id="text6580-8"><tspan
         sodipodi:role="line"
         id="tspan6578-2"
         style="stroke-width:0.264583"
         x="56.31181"
         y="65.038925">PID</tspan></text>
    <path
       style="fill:none;stroke:#000000;stroke-width:0.500001;stroke-linecap:butt;stroke-linejoin:miter;stroke-miterlimit:4;stroke-dasharray:none;stroke-opacity:1;marker-end:url(#marker6985)"
       d="m 141.55208,63.499997 h 22.48958 v 35.71875 H 142.875"
       id="path6981" />
    <path
       style="fill:none;stroke:#000000;stroke-width:0.499999;stroke-linecap:butt;stroke-linejoin:miter;stroke-miterlimit:4;stroke-dasharray:none;stroke-opacity:1;marker-end:url(#marker6985)"
       d="m 99.218749,99.218751 h -39.6875 v -25.13542"
       id="path7266" />
    <text
       xml:space="preserve"
       style="font-style:italic;font-variant:normal;font-weight:normal;font-stretch:normal;font-size:2.82222px;line-height:1.25;font-family:sans-serif;-inkscape-font-specification:'sans-serif Italic';stroke-width:0.264583"
       x="154.4211"
       y="62.056801"
       id="text13295"><tspan
         sodipodi:role="line"
         id="tspan13293"
         style="font-style:italic;font-variant:normal;font-weight:normal;font-stretch:normal;font-size:2.82222px;font-family:sans-serif;-inkscape-font-specification:'sans-serif Italic';stroke-width:0.264583"
         x="154.4211"
         y="62.056801">Partial States</tspan></text>
    <text
       xml:space="preserve"
       style="font-style:italic;font-variant:normal;font-weight:normal;font-stretch:normal;font-size:2.82222px;line-height:1.25;font-family:sans-serif;-inkscape-font-specification:'sans-serif Italic';stroke-width:0.264583"
       x="71.316338"
       y="97.775551"
       id="text13295-5"><tspan
         sodipodi:role="line"
         id="tspan13293-2"
         style="font-style:italic;font-variant:normal;font-weight:normal;font-stretch:normal;font-size:2.82222px;font-family:sans-serif;-inkscape-font-specification:'sans-serif Italic';stroke-width:0.264583"
         x="71.316338"
         y="97.775551">Full States</tspan></text>
    <text
       xml:space="preserve"
       style="font-style:italic;font-variant:normal;font-weight:normal;font-stretch:normal;font-size:2.82222px;line-height:1.25;font-family:sans-serif;-inkscape-font-specification:'sans-serif Italic';stroke-width:0.264583"
       x="83.263832"
       y="61.5783"
       id="text13295-5-2"><tspan
         sodipodi:role="line"
         id="tspan13293-2-4"
         style="font-style:italic;font-variant:normal;font-weight:normal;font-stretch:normal;font-size:2.82222px;font-family:sans-serif;-inkscape-font-specification:'sans-serif Italic';stroke-width:0.264583"
         x="83.263832"
         y="61.5783">Input</tspan></text>
    <g
       inkscape:label=""
       transform="matrix(0.33449477,0,0,0.33449477,-1.9816546,34.134806)"
       id="g1465"
       style="stroke-width:2.98958">
      <g
         id="g1615"
         style="stroke-width:2.98958">
        <g
           style="fill:#000000;fill-opacity:1;stroke-width:2.98958"
           id="g424">
          <use
             xlink:href="#symbol3553"
             x="91.925003"
             y="81.962997"
             id="use7583"
             width="100%"
             height="100%"
             style="stroke-width:2.98958" />
          <use
             xlink:href="#symbol2473"
             x="97.628586"
             y="81.962997"
             id="use342"
             width="100%"
             height="100%"
             style="stroke-width:2.98958" />
        </g>
        <g
           style="fill:#000000;fill-opacity:1;stroke-width:2.98958"
           id="g3284">
          <use
             xlink:href="#symbol1287"
             x="105.3775"
             y="81.962997"
             id="use474"
             width="100%"
             height="100%"
             style="stroke-width:2.98958" />
        </g>
      </g>
    </g>
  </g>
</svg>
